<svg version="1.1" xmlns="http://www.w3.org/2000/svg" viewBox="-383.54241283596986 -231.04056127374986 1728.881475019145 1250.5471790373563"><rect x="640.4878523192796" y="-56.70579791287844" width="326" height="198" style="stroke-width:2px;stroke:rgb(204,204,204);fill-opacity:0.5;fill:rgb(255,255,255);stroke-opacity:1;"></rect><text x="803.4878523192796" y="157.29420208712156" font-family="Arial" text-anchor="middle" font-size="14">DKK</text><rect x="646.4878523192796" y="17.294202087121562" width="150" height="52" rx="6" ry="6" style="stroke-width:2px;stroke:rgb(0,0,0);fill-opacity:0.5;fill:rgb(255,255,255);stroke-opacity:1;"></rect><text x="721.4878523192796" y="48.29420208712156" font-family="Arial" text-anchor="middle" font-size="14">DKK1</text><rect x="647.4878523192796" y="-49.70579791287844" width="150" height="52" rx="6" ry="6" style="stroke-width:4px;stroke:rgb(0,0,0);fill-opacity:0.5;fill:rgb(255,255,255);stroke-opacity:1;"></rect><text x="722.4878523192796" y="-33.70579791287844" font-family="Arial" text-anchor="middle" font-size="14">DKK2</text><svg width="9" height="31" xmlns="http://www.w3.org/2000/svg" x="717.9878523192796" y="-36.70579791287844"><g><rect width="6" height="23" x="0" y="8" stroke="rgb(0,0,0)" stroke-opacity="0" stroke-width="0" fill="rgb(190,190,190)" fill-opacity="1"></rect><rect width="6" height="7.6659" x="0" y="15.6659" stroke="rgb(0,0,0)" stroke-opacity="0" stroke-width="0" fill="rgb(83,212,0)" fill-opacity="1"></rect></g></svg><rect x="646.4878523192796" y="83.29420208712156" width="150" height="52" rx="6" ry="6" style="stroke-width:2px;stroke:rgb(0,0,0);fill-opacity:0.5;fill:rgb(255,255,255);stroke-opacity:1;"></rect><text x="721.4878523192796" y="114.29420208712156" font-family="Arial" text-anchor="middle" font-size="14">DKK4</text><rect x="810.4878523192796" y="17.294202087121562" width="150" height="52" rx="6" ry="6" style="stroke-width:2px;stroke:rgb(0,0,0);fill-opacity:0.5;fill:rgb(255,255,255);stroke-opacity:1;"></rect><text x="885.4878523192796" y="48.29420208712156" font-family="Arial" text-anchor="middle" font-size="14">DKK3</text><rect x="515.3312142438016" y="600.544333935291" width="326" height="196" style="stroke-width:2px;stroke:rgb(204,204,204);fill-opacity:0.5;fill:rgb(255,255,255);stroke-opacity:1;"></rect><text x="678.3312142438016" y="812.544333935291" font-family="Arial" text-anchor="middle" font-size="14">Groucho</text><rect x="521.3312142438016" y="606.544333935291" width="150" height="52" rx="6" ry="6" style="stroke-width:2px;stroke:rgb(0,0,0);fill-opacity:0.5;fill:rgb(255,255,255);stroke-opacity:1;"></rect><text x="596.3312142438016" y="637.544333935291" font-family="Arial" text-anchor="middle" font-size="14">TLE1</text><rect x="521.3312142438016" y="672.544333935291" width="150" height="52" rx="6" ry="6" style="stroke-width:2px;stroke:rgb(0,0,0);fill-opacity:0.5;fill:rgb(255,255,255);stroke-opacity:1;"></rect><text x="596.3312142438016" y="703.544333935291" font-family="Arial" text-anchor="middle" font-size="14">TLE4</text><rect x="521.3312142438016" y="738.544333935291" width="150" height="52" rx="6" ry="6" style="stroke-width:2px;stroke:rgb(0,0,0);fill-opacity:0.5;fill:rgb(255,255,255);stroke-opacity:1;"></rect><text x="596.3312142438016" y="769.544333935291" font-family="Arial" text-anchor="middle" font-size="14">TLE2</text><rect x="685.3312142438016" y="606.544333935291" width="150" height="52" rx="6" ry="6" style="stroke-width:2px;stroke:rgb(0,0,0);fill-opacity:0.5;fill:rgb(255,255,255);stroke-opacity:1;"></rect><text x="760.3312142438016" y="637.544333935291" font-family="Arial" text-anchor="middle" font-size="14">TLE3</text><rect x="252.1584909956465" y="423.7019710937298" width="150" height="52" rx="6" ry="6" style="stroke-width:2px;stroke:rgb(0,0,0);fill-opacity:0.5;fill:rgb(255,255,255);stroke-opacity:1;"></rect><text x="327.1584909956465" y="454.7019710937298" font-family="Arial" text-anchor="middle" font-size="14">APC</text><rect x="423.4763489102517" y="-152.67560548063068" width="150" height="52" rx="6" ry="6" style="stroke-width:2px;stroke:rgb(0,0,0);fill-opacity:0.5;fill:rgb(255,255,255);stroke-opacity:1;"></rect><text x="498.4763489102517" y="-121.67560548063068" font-family="Arial" text-anchor="middle" font-size="14">WIF1</text><rect x="418.3433903104383" y="66.95428931828314" width="162.00000000000006" height="196" style="stroke-width:2px;stroke:rgb(0,0,0);fill-opacity:0.5;fill:rgb(255,255,255);stroke-opacity:1;"></rect><text x="499.3433903104383" y="278.95428931828314" font-family="Arial" text-anchor="middle" font-size="14">WNT Dual Receptor Complex</text><rect x="424.3433903104382" y="138.95428931828312" width="150" height="52" rx="6" ry="6" style="stroke-width:2px;stroke:rgb(0,0,0);fill-opacity:0.5;fill:rgb(255,255,255);stroke-opacity:1;"></rect><text x="499.3433903104382" y="169.95428931828312" font-family="Arial" text-anchor="middle" font-size="14">LRP5</text><rect x="424.3433903104382" y="72.95428931828313" width="150" height="52" rx="6" ry="6" style="stroke-width:2px;stroke:rgb(0,0,0);fill-opacity:0.5;fill:rgb(255,255,255);stroke-opacity:1;"></rect><text x="499.3433903104382" y="103.95428931828313" font-family="Arial" text-anchor="middle" font-size="14">FZDs</text><rect x="424.3433903104382" y="204.95428931828312" width="150" height="52" rx="6" ry="6" style="stroke-width:2px;stroke:rgb(0,0,0);fill-opacity:0.5;fill:rgb(255,255,255);stroke-opacity:1;"></rect><text x="499.3433903104382" y="235.95428931828312" font-family="Arial" text-anchor="middle" font-size="14">LRP6</text><rect x="138.57053370578518" y="798.7610620675185" width="132" height="24" style="stroke-width:2px;stroke:rgb(0,0,0);fill-opacity:0;fill:rgb(255,255,255);stroke-opacity:0;"></rect><text x="204.57053370578518" y="815.7610620675185" font-family="Arial" text-anchor="middle" font-size="14">Cell proliferation</text><rect x="304.6833266537639" y="756.6110985497055" width="162" height="196" style="stroke-width:2px;stroke:rgb(0,0,0);fill-opacity:0.5;fill:rgb(255,255,255);stroke-opacity:1;"></rect><text x="385.6833266537639" y="968.6110985497055" font-family="Arial" text-anchor="middle" font-size="14">TCF/LEF</text><rect x="310.6833266537639" y="762.6110985497055" width="150" height="52" rx="6" ry="6" style="stroke-width:2px;stroke:rgb(0,0,0);fill-opacity:0.5;fill:rgb(255,255,255);stroke-opacity:1;"></rect><text x="385.6833266537639" y="793.6110985497055" font-family="Arial" text-anchor="middle" font-size="14">TCF7L1</text><rect x="310.6833266537639" y="828.6110985497055" width="150" height="52" rx="6" ry="6" style="stroke-width:2px;stroke:rgb(0,0,0);fill-opacity:0.5;fill:rgb(255,255,255);stroke-opacity:1;"></rect><text x="385.6833266537639" y="859.6110985497055" font-family="Arial" text-anchor="middle" font-size="14">TCF7L2</text><rect x="310.6833266537639" y="894.6110985497055" width="150" height="52" rx="6" ry="6" style="stroke-width:2px;stroke:rgb(0,0,0);fill-opacity:0.5;fill:rgb(255,255,255);stroke-opacity:1;"></rect><text x="385.6833266537639" y="925.6110985497055" font-family="Arial" text-anchor="middle" font-size="14">TCF7</text><rect x="641.7832903592173" y="242.31139763078892" width="162" height="130" style="stroke-width:2px;stroke:rgb(204,204,204);fill-opacity:0.5;fill:rgb(255,255,255);stroke-opacity:1;"></rect><text x="722.7832903592173" y="388.3113976307889" font-family="Arial" text-anchor="middle" font-size="14">AXIN</text><rect x="647.7832903592173" y="248.31139763078892" width="150" height="52" rx="6" ry="6" style="stroke-width:2px;stroke:rgb(0,0,0);fill-opacity:0.5;fill:rgb(255,255,255);stroke-opacity:1;"></rect><text x="722.7832903592173" y="279.3113976307889" font-family="Arial" text-anchor="middle" font-size="14">AXIN1</text><rect x="647.7832903592173" y="314.3113976307889" width="150" height="52" rx="6" ry="6" style="stroke-width:2px;stroke:rgb(0,0,0);fill-opacity:0.5;fill:rgb(255,255,255);stroke-opacity:1;"></rect><text x="722.7832903592173" y="345.3113976307889" font-family="Arial" text-anchor="middle" font-size="14">AXIN2</text><rect x="201.96625215190147" y="134.1680081305851" width="150" height="52" rx="6" ry="6" style="stroke-width:2px;stroke:rgb(0,0,0);fill-opacity:0.5;fill:rgb(255,255,255);stroke-opacity:1;"></rect><text x="276.9662521519015" y="165.1680081305851" font-family="Arial" text-anchor="middle" font-size="14">RNF43</text><rect x="459.6591843633108" y="381.3905845712111" width="150" height="52" rx="6" ry="6" style="stroke-width:2px;stroke:rgb(0,0,0);fill-opacity:0.5;fill:rgb(255,255,255);stroke-opacity:1;"></rect><text x="534.6591843633108" y="412.3905845712111" font-family="Arial" text-anchor="middle" font-size="14">CTNNB1</text><rect x="-4.691202972074279" y="-181.145042059849" width="326" height="196" style="stroke-width:2px;stroke:rgb(204,204,204);fill-opacity:0.5;fill:rgb(255,255,255);stroke-opacity:1;"></rect><text x="158.30879702792572" y="30.854957940150996" font-family="Arial" text-anchor="middle" font-size="14">SFRP</text><rect x="1.308797027925749" y="-175.145042059849" width="150" height="52" rx="6" ry="6" style="stroke-width:2px;stroke:rgb(0,0,0);fill-opacity:0.5;fill:rgb(255,255,255);stroke-opacity:1;"></rect><text x="76.30879702792575" y="-144.145042059849" font-family="Arial" text-anchor="middle" font-size="14">SFRP3</text><rect x="1.308797027925749" y="-109.14504205984899" width="150" height="52" rx="6" ry="6" style="stroke-width:2px;stroke:rgb(0,0,0);fill-opacity:0.5;fill:rgb(255,255,255);stroke-opacity:1;"></rect><text x="76.30879702792575" y="-78.14504205984899" font-family="Arial" text-anchor="middle" font-size="14">SFRP1</text><rect x="1.308797027925749" y="-43.14504205984899" width="150" height="52" rx="6" ry="6" style="stroke-width:2px;stroke:rgb(0,0,0);fill-opacity:0.5;fill:rgb(255,255,255);stroke-opacity:1;"></rect><text x="76.30879702792575" y="-12.14504205984899" font-family="Arial" text-anchor="middle" font-size="14">SFRP2</text><rect x="165.30879702792575" y="-175.145042059849" width="150" height="52" rx="6" ry="6" style="stroke-width:2px;stroke:rgb(0,0,0);fill-opacity:0.5;fill:rgb(255,255,255);stroke-opacity:1;"></rect><text x="240.30879702792575" y="-144.145042059849" font-family="Arial" text-anchor="middle" font-size="14">SFRP5</text><rect x="165.30879702792575" y="-109.14504205984899" width="150" height="52" rx="6" ry="6" style="stroke-width:2px;stroke:rgb(0,0,0);fill-opacity:0.5;fill:rgb(255,255,255);stroke-opacity:1;"></rect><text x="240.30879702792575" y="-78.14504205984899" font-family="Arial" text-anchor="middle" font-size="14">SFRP4</text><rect x="379.01319740048905" y="-44.410624271428674" width="150" height="52" rx="6" ry="6" style="stroke-width:2px;stroke:rgb(0,0,0);fill-opacity:0.5;fill:rgb(255,255,255);stroke-opacity:1;"></rect><text x="454.01319740048905" y="-13.410624271428674" font-family="Arial" text-anchor="middle" font-size="14">WNT ligands</text><rect x="264.65189724643983" y="306.162573888404" width="150" height="52" rx="6" ry="6" style="stroke-width:2px;stroke:rgb(0,0,0);fill-opacity:0.5;fill:rgb(255,255,255);stroke-opacity:1;"></rect><text x="339.65189724643983" y="337.162573888404" font-family="Arial" text-anchor="middle" font-size="14">GSK3B</text><rect x="596.7996624777959" y="465.5443346172521" width="150" height="52" rx="6" ry="6" style="stroke-width:2px;stroke:rgb(0,0,0);fill-opacity:0.5;fill:rgb(255,255,255);stroke-opacity:1;"></rect><text x="671.7996624777959" y="496.5443346172521" font-family="Arial" text-anchor="middle" font-size="14">AMER1</text><line x1="375.58214029891303" y1="-28.61940028372805" x2="378.4905221876169" y2="-41.90478002197639" stroke-width="3.4" stroke="black"></line><line x1="323.30879702792566" y1="-47.02390581151472" x2="377.03633124326495" y2="-35.262090152852224" stroke-width="1" stroke="black"></line><line x1="583.0683312917853" y1="429.1177914237772" x2="575.9553496464838" y2="440.7094044311893" stroke-width="3.4" stroke="black"></line><line x1="627.7993308578114" y1="464.5443346172521" x2="579.5118404691345" y2="434.91359792748324" stroke-width="1" stroke="black"></line><polygon points="369.91357403711976,290.6308732295246,379.7487535248544,300.0239155718142,365.4381214386975,305.162573888404"></polygon><line x1="416.3433903104383" y1="251.86115801264825" x2="374.8311637809871" y2="295.3273944006694" stroke-width="1" stroke="black"></line><line x1="415.19729756898874" y1="169.94476587129586" x2="415.4899461417636" y2="156.34791488245097" stroke-width="3.4" stroke="black"></line><line x1="352.9662521519015" y1="161.8037759675006" x2="415.34362185537617" y2="163.1463403768734" stroke-width="1" stroke="black"></line><line x1="461.697860652999" y1="386.5327174632146" x2="466.5927389622467" y2="373.8441333681449" stroke-width="3.4" stroke="black"></line><line x1="409.23279767749034" y1="359.0048155211965" x2="464.14529980762285" y2="380.1884254156798" stroke-width="1" stroke="black"></line><polygon points="273.08237846742855,820.3523064202169,269.882084984501,833.5704046806753,258.26413346550646,823.7610620675185"></polygon><line x1="302.6833266537639" y1="834.5155935951389" x2="271.48223172596477" y2="826.9613555504461" stroke-width="1" stroke="black"></line><polygon points="464.7569715506246,53.38366016329531,477.9595218273562,50.11981791980775,474.62208893247794,64.95428931828314"></polygon><line x1="460.68794877253833" y1="8.589375728571326" x2="471.3582466889904" y2="51.75173904155153" stroke-width="1" stroke="black"></line><polygon points="624.6595803824206,252.85807610185182,631.9672272338818,241.38818955078565,639.7832903592173,254.43077967778"></polygon><line x1="582.3433903104383" y1="217.83490727129205" x2="628.3134038081512" y2="247.12313282631874" stroke-width="1" stroke="black"></line><line x1="583.1016538592824" y1="373.9175654663495" x2="589.4890456183359" y2="385.9242813585648" stroke-width="3.4" stroke="black"></line><line x1="639.7832903592173" y1="351.46614575347655" x2="586.2953497388091" y2="379.92092341245717" stroke-width="1" stroke="black"></line><line x1="580.7274467419153" y1="124.80029084440484" x2="585.8141719963547" y2="137.41319004267993" stroke-width="3.4" stroke="black"></line><line x1="638.4878523192796" y1="108.83795652363446" x2="583.270809369135" y2="131.10674044354238" stroke-width="1" stroke="black"></line><line x1="459.1914849268082" y1="-48.91896043409569" x2="471.77186973142267" y2="-43.75234469767556" stroke-width="3.4" stroke="black"></line><line x1="487.38776719753855" y1="-99.67560548063068" x2="465.4816773291154" y2="-46.335652565885624" stroke-width="1" stroke="black"></line><line x1="459.03797505130586" y1="429.75040558134646" x2="456.32071953962765" y2="416.4246214586671" stroke-width="3.4" stroke="black"></line><line x1="403.1584909956465" y1="434.20484034432224" x2="457.67934729546675" y2="423.0875135200068" stroke-width="1" stroke="black"></line><line x1="466.36588804063655" y1="803.8772032457057" x2="472.7655014675276" y2="815.8774094100329" stroke-width="3.4" stroke="black"></line><line x1="513.3312142438016" y1="786.5375068006024" x2="469.5656947540821" y2="809.8773063278693" stroke-width="1" stroke="black"></line></svg>